<svg width="207" height="28" viewBox="0 0 207 28" fill="none" xmlns="http://www.w3.org/2000/svg">
<path d="M40.9609 15.5664C40.9609 13.5977 41.4219 12.0273 42.3438 10.8555C43.2734 9.67578 44.5039 9.08594 46.0352 9.08594C47.4805 9.08594 48.6172 9.58984 49.4453 10.5977L49.5742 9.32031H52.1406V21.6133C52.1406 23.2773 51.6211 24.5898 50.582 25.5508C49.5508 26.5117 48.1562 26.9922 46.3984 26.9922C45.4688 26.9922 44.5586 26.7969 43.668 26.4062C42.7852 26.0234 42.1133 25.5195 41.6523 24.8945L43 23.1836C43.875 24.2227 44.9531 24.7422 46.2344 24.7422C47.1797 24.7422 47.9258 24.4844 48.4727 23.9688C49.0195 23.4609 49.293 22.7109 49.293 21.7188V20.8633C48.4727 21.7773 47.3789 22.2344 46.0117 22.2344C44.5273 22.2344 43.3125 21.6445 42.3672 20.4648C41.4297 19.2852 40.9609 17.6523 40.9609 15.5664ZM43.7969 15.8125C43.7969 17.0859 44.0547 18.0898 44.5703 18.8242C45.0938 19.5508 45.8164 19.9141 46.7383 19.9141C47.8867 19.9141 48.7383 19.4219 49.293 18.4375V12.8594C48.7539 11.8984 47.9102 11.418 46.7617 11.418C45.8242 11.418 45.0938 11.7891 44.5703 12.5312C44.0547 13.2734 43.7969 14.3672 43.7969 15.8125ZM58.1055 22H55.2578V9.32031H58.1055V22ZM55.082 6.02734C55.082 5.58984 55.2188 5.22656 55.4922 4.9375C55.7734 4.64844 56.1719 4.50391 56.6875 4.50391C57.2031 4.50391 57.6016 4.64844 57.8828 4.9375C58.1641 5.22656 58.3047 5.58984 58.3047 6.02734C58.3047 6.45703 58.1641 6.81641 57.8828 7.10547C57.6016 7.38672 57.2031 7.52734 56.6875 7.52734C56.1719 7.52734 55.7734 7.38672 55.4922 7.10547C55.2188 6.81641 55.082 6.45703 55.082 6.02734ZM64.7852 6.23828V9.32031H67.0234V11.4297H64.7852V18.5078C64.7852 18.9922 64.8789 19.3438 65.0664 19.5625C65.2617 19.7734 65.6055 19.8789 66.0977 19.8789C66.4258 19.8789 66.7578 19.8398 67.0938 19.7617V21.9648C66.4453 22.1445 65.8203 22.2344 65.2188 22.2344C63.0312 22.2344 61.9375 21.0273 61.9375 18.6133V11.4297H59.8516V9.32031H61.9375V6.23828H64.7852ZM72.0156 10.7031C72.9453 9.625 74.1211 9.08594 75.543 9.08594C78.2461 9.08594 79.6172 10.6289 79.6562 13.7148V22H76.8086V13.8203C76.8086 12.9453 76.6172 12.3281 76.2344 11.9688C75.8594 11.6016 75.3047 11.418 74.5703 11.418C73.4297 11.418 72.5781 11.9258 72.0156 12.9414V22H69.168V4H72.0156V10.7031ZM90.2266 20.7578C89.3906 21.7422 88.2031 22.2344 86.6641 22.2344C85.2891 22.2344 84.2461 21.832 83.5352 21.0273C82.832 20.2227 82.4805 19.0586 82.4805 17.5352V9.32031H85.3281V17.5C85.3281 19.1094 85.9961 19.9141 87.332 19.9141C88.7148 19.9141 89.6484 19.418 90.1328 18.4258V9.32031H92.9805V22H90.2969L90.2266 20.7578ZM107.008 15.7891C107.008 17.7578 106.566 19.3242 105.684 20.4883C104.809 21.6523 103.602 22.2344 102.062 22.2344C100.578 22.2344 99.4219 21.6992 98.5938 20.6289L98.4531 22H95.875V4H98.7227V10.5391C99.543 9.57031 100.648 9.08594 102.039 9.08594C103.586 9.08594 104.801 9.66016 105.684 10.8086C106.566 11.957 107.008 13.5625 107.008 15.625V15.7891ZM104.16 15.543C104.16 14.168 103.918 13.1367 103.434 12.4492C102.949 11.7617 102.246 11.418 101.324 11.418C100.09 11.418 99.2227 11.957 98.7227 13.0352V18.2617C99.2305 19.3633 100.105 19.9141 101.348 19.9141C102.238 19.9141 102.926 19.582 103.41 18.918C103.895 18.2539 104.145 17.25 104.16 15.9062V15.543Z" fill="#0B0C01"/>
<path d="M118.727 24.2383H107.98V22H118.727V24.2383ZM125.816 22.2344C124.012 22.2344 122.547 21.668 121.422 20.5352C120.305 19.3945 119.746 17.8789 119.746 15.9883V15.6367C119.746 14.3711 119.988 13.2422 120.473 12.25C120.965 11.25 121.652 10.4727 122.535 9.91797C123.418 9.36328 124.402 9.08594 125.488 9.08594C127.215 9.08594 128.547 9.63672 129.484 10.7383C130.43 11.8398 130.902 13.3984 130.902 15.4141V16.5625H122.617C122.703 17.6094 123.051 18.4375 123.66 19.0469C124.277 19.6562 125.051 19.9609 125.98 19.9609C127.285 19.9609 128.348 19.4336 129.168 18.3789L130.703 19.8438C130.195 20.6016 129.516 21.1914 128.664 21.6133C127.82 22.0273 126.871 22.2344 125.816 22.2344ZM125.477 11.3711C124.695 11.3711 124.062 11.6445 123.578 12.1914C123.102 12.7383 122.797 13.5 122.664 14.4766H128.09V14.2656C128.027 13.3125 127.773 12.5938 127.328 12.1094C126.883 11.6172 126.266 11.3711 125.477 11.3711ZM137.676 13.4922L140.09 9.32031H143.254L139.375 15.5664L143.383 22H140.242L137.711 17.6641L135.191 22H132.027L136.035 15.5664L132.168 9.32031H135.309L137.676 13.4922ZM156.297 15.7891C156.297 17.75 155.852 19.3164 154.961 20.4883C154.07 21.6523 152.875 22.2344 151.375 22.2344C149.984 22.2344 148.871 21.7773 148.035 20.8633V26.875H145.188V9.32031H147.812L147.93 10.6094C148.766 9.59375 149.902 9.08594 151.34 9.08594C152.887 9.08594 154.098 9.66406 154.973 10.8203C155.855 11.9688 156.297 13.5664 156.297 15.6133V15.7891ZM153.461 15.543C153.461 14.2773 153.207 13.2734 152.699 12.5312C152.199 11.7891 151.48 11.418 150.543 11.418C149.379 11.418 148.543 11.8984 148.035 12.8594V18.4844C148.551 19.4688 149.395 19.9609 150.566 19.9609C151.473 19.9609 152.18 19.5977 152.688 18.8711C153.203 18.1367 153.461 17.0273 153.461 15.543ZM161.746 22H158.898V4H161.746V22ZM164.324 15.543C164.324 14.3008 164.57 13.1836 165.062 12.1914C165.555 11.1914 166.246 10.4258 167.137 9.89453C168.027 9.35547 169.051 9.08594 170.207 9.08594C171.918 9.08594 173.305 9.63672 174.367 10.7383C175.438 11.8398 176.016 13.3008 176.102 15.1211L176.113 15.7891C176.113 17.0391 175.871 18.1562 175.387 19.1406C174.91 20.125 174.223 20.8867 173.324 21.4258C172.434 21.9648 171.402 22.2344 170.23 22.2344C168.441 22.2344 167.008 21.6406 165.93 20.4531C164.859 19.2578 164.324 17.668 164.324 15.6836V15.543ZM167.172 15.7891C167.172 17.0938 167.441 18.1172 167.98 18.8594C168.52 19.5938 169.27 19.9609 170.23 19.9609C171.191 19.9609 171.938 19.5859 172.469 18.8359C173.008 18.0859 173.277 16.9883 173.277 15.543C173.277 14.2617 173 13.2461 172.445 12.4961C171.898 11.7461 171.152 11.3711 170.207 11.3711C169.277 11.3711 168.539 11.7422 167.992 12.4844C167.445 13.2188 167.172 14.3203 167.172 15.7891ZM185.16 11.9219C184.785 11.8594 184.398 11.8281 184 11.8281C182.695 11.8281 181.816 12.3281 181.363 13.3281V22H178.516V9.32031H181.234L181.305 10.7383C181.992 9.63672 182.945 9.08594 184.164 9.08594C184.57 9.08594 184.906 9.14062 185.172 9.25L185.16 11.9219ZM192.309 22.2344C190.504 22.2344 189.039 21.668 187.914 20.5352C186.797 19.3945 186.238 17.8789 186.238 15.9883V15.6367C186.238 14.3711 186.48 13.2422 186.965 12.25C187.457 11.25 188.145 10.4727 189.027 9.91797C189.91 9.36328 190.895 9.08594 191.98 9.08594C193.707 9.08594 195.039 9.63672 195.977 10.7383C196.922 11.8398 197.395 13.3984 197.395 15.4141V16.5625H189.109C189.195 17.6094 189.543 18.4375 190.152 19.0469C190.77 19.6562 191.543 19.9609 192.473 19.9609C193.777 19.9609 194.84 19.4336 195.66 18.3789L197.195 19.8438C196.688 20.6016 196.008 21.1914 195.156 21.6133C194.312 22.0273 193.363 22.2344 192.309 22.2344ZM191.969 11.3711C191.188 11.3711 190.555 11.6445 190.07 12.1914C189.594 12.7383 189.289 13.5 189.156 14.4766H194.582V14.2656C194.52 13.3125 194.266 12.5938 193.82 12.1094C193.375 11.6172 192.758 11.3711 191.969 11.3711ZM206.254 11.9219C205.879 11.8594 205.492 11.8281 205.094 11.8281C203.789 11.8281 202.91 12.3281 202.457 13.3281V22H199.609V9.32031H202.328L202.398 10.7383C203.086 9.63672 204.039 9.08594 205.258 9.08594C205.664 9.08594 206 9.14062 206.266 9.25L206.254 11.9219Z" fill="#A8A8B3"/>
<g clip-path="url(#clip0)">
<path d="M16 25.0001V21.1301C16.0375 20.6532 15.9731 20.1739 15.811 19.7239C15.6489 19.2738 15.3929 18.8635 15.06 18.5201C18.2 18.1701 21.5 16.9801 21.5 11.5201C21.4997 10.1239 20.9627 8.78126 20 7.77006C20.4559 6.54857 20.4236 5.19841 19.91 4.00006C19.91 4.00006 18.73 3.65006 16 5.48006C13.708 4.85888 11.292 4.85888 9 5.48006C6.27 3.65006 5.09 4.00006 5.09 4.00006C4.57638 5.19841 4.54414 6.54857 5 7.77006C4.03013 8.78876 3.49252 10.1435 3.5 11.5501C3.5 16.9701 6.8 18.1601 9.94 18.5501C9.611 18.89 9.35726 19.2955 9.19531 19.74C9.03335 20.1845 8.96681 20.6581 9 21.1301V25.0001M9 22.0001C4 23.5001 4 19.5001 2 19.0001L9 22.0001Z" stroke="black" stroke-width="2" stroke-linecap="round" stroke-linejoin="round"/>
</g>
<defs>
<clipPath id="clip0">
<rect width="24" height="24" fill="white" transform="translate(0 3)"/>
</clipPath>
</defs>
</svg>
